<?xml version="1.0" encoding="UTF-8"?>
<svg width="1290px" height="284px" viewBox="0 0 1290 284" version="1.1" xmlns="http://www.w3.org/2000/svg" xmlns:xlink="http://www.w3.org/1999/xlink">
    <title>Logotype-Rothelec-Quadri-Fond-Blanc-RVB</title>
    <g id="Page-1" stroke="none" stroke-width="1" fill="none" fill-rule="evenodd">
        <g id="Logotype-Rothelec-Quadri-Fond-Blanc-RVB" transform="translate(0.200000, 0.240000)" fill-rule="nonzero">
            <g id="Group" transform="translate(347.410000, 23.620000)" fill="#286D7D">
                <path d="M933.42,62.48 C933.68,62.26 933.89,62.02 934.07,61.74 C934.25,61.46 934.38,61.15 934.48,60.82 C934.57,60.49 934.62,60.14 934.62,59.78 C934.62,59.21 934.53,58.71 934.34,58.26 C934.16,57.81 933.89,57.43 933.55,57.11 C933.2,56.8 932.78,56.55 932.28,56.39 C931.78,56.22 931.22,56.14 930.59,56.14 L925.82,56.14 L925.82,67.5 L928.2,67.5 L928.2,63.38 L930.14,63.38 L932.26,67.5 L934.95,67.5 L932.56,63.01 C932.87,62.86 933.16,62.69 933.42,62.48 Z M931.67,61.08 C931.34,61.39 930.88,61.54 930.27,61.54 L928.18,61.54 L928.18,58.04 L930.24,58.04 C930.53,58.04 930.8,58.08 931.04,58.16 C931.27,58.24 931.48,58.36 931.64,58.51 C931.8,58.66 931.93,58.85 932.02,59.06 C932.11,59.28 932.16,59.52 932.16,59.79 C932.17,60.35 932,60.78 931.67,61.08 Z" id="Shape"></path>
                <path d="M930.16,49.8 C923.52,49.8 918.12,55.2 918.12,61.84 C918.12,68.48 923.52,73.88 930.16,73.88 C936.8,73.88 942.2,68.48 942.2,61.84 C942.2,55.2 936.8,49.8 930.16,49.8 Z M930.16,71.67 C924.74,71.67 920.33,67.26 920.33,61.84 C920.33,56.42 924.74,52.01 930.16,52.01 C935.58,52.01 939.99,56.42 939.99,61.84 C939.99,67.26 935.58,71.67 930.16,71.67 Z" id="Shape"></path>
                <path d="M31.31,176.59 L-1.13686838e-13,176.59 L-1.13686838e-13,53.64 L31.31,53.64 L31.31,66.99 C38.24,56.73 48.51,50.05 61.34,50.05 C69.56,50.05 76.23,52.36 81.11,56.21 L68.02,85.98 C63.92,82.64 57.76,80.59 51.85,80.59 C39.27,80.59 31.31,91.11 31.31,107.8 L31.31,176.59 Z" id="Path"></path>
                <path d="M79.33,115.24 C79.33,79.31 107.57,50.05 143.24,50.05 C178.91,50.05 207.41,79.31 207.41,115.24 C207.41,150.92 178.92,180.18 143.24,180.18 C107.56,180.18 79.33,150.93 79.33,115.24 Z M175.84,114.99 C175.84,95.22 162.24,79.57 143.5,79.57 C124.51,79.57 110.65,95.23 110.65,114.99 C110.65,134.75 124.51,150.67 143.5,150.67 C162.24,150.67 175.84,134.75 175.84,114.99 Z" id="Shape"></path>
                <path d="M216.67,53.64 L238.49,53.64 L238.49,21.81 L269.8,21.81 L269.8,53.64 L303.17,53.64 L303.17,81.37 L270.06,81.37 L270.06,133.47 C270.06,145.02 274.94,150.67 284.17,150.67 C289.82,150.67 295.47,148.1 298.54,144.51 L312.66,167.87 C305.73,174.54 294.18,180.19 279.04,180.19 C254.14,180.19 238.23,164.53 238.23,134.51 L238.23,81.38 L216.67,81.38 L216.67,53.64 Z" id="Path"></path>
                <path d="M360.16,176.59 L328.85,176.59 L328.85,0 L360.16,0 L360.16,65.71 C367.87,55.7 379.67,50.05 394.82,50.05 C423.31,50.05 441.53,70.07 441.53,102.15 L441.53,176.58 L410.22,176.58 L410.22,106.76 C410.22,90.08 400.47,79.55 385.32,79.55 C369.67,79.55 360.17,90.08 360.17,106.76 L360.17,176.59 L360.16,176.59 Z" id="Path"></path>
                <path d="M462.6,115.24 C462.6,79.31 489.3,50.05 524.72,50.05 C559.89,50.05 586.58,77.26 586.58,112.68 C586.58,116.53 586.32,120.9 585.81,122.95 L494.69,122.95 C497.77,140.15 510.86,152.46 529.86,152.46 C542.18,152.46 552.7,147.07 559.89,139.62 L576.06,160.92 C566.82,171.7 549.37,180.170003 528.58,180.170003 C490.32,180.18 462.6,150.93 462.6,115.24 Z M495.2,103.18 L554.49,103.18 C550.9,85.73 539.86,76.74 525.24,76.74 C509.57,76.74 498.79,87.52 495.2,103.18 Z" id="Shape"></path>
                <polygon id="Path" points="607.13 0 638.44 0 638.44 176.59 607.13 176.59"></polygon>
                <path d="M660.52,115.24 C660.52,79.31 687.22,50.05 722.64,50.05 C757.81,50.05 784.5,77.26 784.5,112.68 C784.5,116.53 784.24,120.9 783.73,122.95 L692.61,122.95 C695.69,140.15 708.78,152.46 727.78,152.46 C740.1,152.46 750.62,147.07 757.81,139.62 L773.98,160.92 C764.74,171.7 747.29,180.170003 726.5,180.170003 C688.25,180.18 660.52,150.93 660.52,115.24 Z M693.12,103.18 L752.41,103.18 C748.82,85.73 737.78,76.74 723.16,76.74 C707.5,76.74 696.72,87.52 693.12,103.18 Z" id="Shape"></path>
                <path d="M862.55,79.57 C842.02,79.57 828.16,95.23 828.16,114.99 C828.16,134.75 842.27,150.67 862.3,150.67 C874.88,150.67 884.88,146.3 892.58,138.6 L908.5,161.7 C898.75,172.48 881.03,180.18 861.53,180.18 C825.09,180.18 796.85,150.93 796.85,115.24 C796.85,79.31 825.09,50.05 861.02,50.05 C882.07,50.05 898.75,57.24 909.53,68.53 L891.56,90.86 C883.85,83.42 874.62,79.57 862.55,79.57 Z" id="Path"></path>
            </g>
            <g id="Group" transform="translate(0.000000, 0.000000)" fill="#EE7601">
                <rect id="Rectangle" x="125.52" y="5.68434189e-14" width="30.78" height="90.49"></rect>
                <rect id="Rectangle" x="191.33" y="125.52" width="90.49" height="30.78"></rect>
                <rect id="Rectangle" x="-5.68434189e-14" y="125.52" width="90.49" height="30.78"></rect>
                <rect id="Rectangle" transform="translate(73.262587, 73.238584) rotate(-45.000000) translate(-73.262587, -73.238584) " x="57.8777345" y="27.9940179" width="30.7697049" height="90.4891322"></rect>
                <g transform="translate(30.390000, 125.015000)">
                    <rect id="Rectangle" x="95.13" y="100.685" width="30.78" height="56.13"></rect>
                    <path d="M100.76,3.885 L-5.68434189e-14,104.655 L21.76,126.415 L110.52,37.655 L199.28,126.415 L221.04,104.655 L120.28,3.885 C115.1,-1.295 105.98,-1.295 100.76,3.885 Z" id="Path"></path>
                </g>
                <rect id="Rectangle" transform="translate(208.558943, 73.282981) rotate(-44.991897) translate(-208.558943, -73.282981) " x="163.314376" y="57.8981284" width="90.4891331" height="30.7697052"></rect>
            </g>
            <g id="Group" transform="translate(678.680000, 225.630000)" fill="#286D7D">
                <polygon id="Path" points="23.46 1.13686838e-13 16.43 1.13686838e-13 9.94 10.34 15.31 10.34"></polygon>
                <polygon id="Path" points="1.13686838e-13 56.34 26.97 56.34 26.97 50.71 5.96 50.71 5.96 37.84 24.32 37.84 24.32 32.21 5.96 32.21 5.96 19.49 26.97 19.49 26.97 13.85 1.13686838e-13 13.85"></polygon>
                <polygon id="Path" points="67.38 46.79 43.85 13.85 37.36 13.85 37.36 56.34 43.39 56.34 43.39 23.6 66.85 56.34 73.34 56.34 73.34 13.85 67.38 13.85"></polygon>
                <polygon id="Path" points="86.84 56.34 113.81 56.34 113.81 50.71 92.8 50.71 92.8 37.84 111.16 37.84 111.16 32.21 92.8 32.21 92.8 19.49 113.81 19.49 113.81 13.85 86.84 13.85"></polygon>
                <path d="M154.75,26.65 C154.75,18.9 148.58,13.86 139.24,13.86 L124.4,13.86 L124.4,56.34 L130.36,56.34 L130.36,39.5 L138.64,39.5 L148.58,56.34 L155.48,56.34 L144.87,38.78 C150.97,37.12 154.75,32.67 154.75,26.65 Z M130.36,34.13 L130.36,19.22 L139.77,19.22 C145.01,19.22 148.52,22.13 148.52,26.64 C148.52,31.15 145.01,34.13 139.77,34.13 L130.36,34.13 Z" id="Shape"></path>
                <path d="M194.23,49.24 C191.65,50.5 188.66,51.23 185.35,51.23 C176.34,51.23 169.51,44.01 169.51,35.12 C169.51,26.18 176.34,18.95 184.82,18.95 C189.59,18.95 193.17,20.61 196.02,22.99 L200,18.35 C196.29,14.97 191.58,13.05 184.82,13.05 C172.82,13.05 163.15,22.92 163.15,35.12 C163.15,47.25 172.63,57.12 184.95,57.12 C191.31,57.12 196.29,55.73 200.2,53.01 L200.2,35.45 L194.23,35.45 L194.23,49.24 L194.23,49.24 Z" id="Path"></path>
                <rect id="Rectangle" x="212.49" y="13.85" width="5.97" height="42.48"></rect>
                <polygon id="Path" points="232.17 56.34 259.14 56.34 259.14 50.71 238.13 50.71 238.13 37.84 256.49 37.84 256.49 32.21 238.13 32.21 238.13 19.49 259.14 19.49 259.14 13.85 232.17 13.85"></polygon>
            </g>
            <g id="Group" transform="translate(963.210000, 239.180000)" fill="#EE7601">
                <path d="M74.54,1.13686838e-13 C62.41,1.13686838e-13 52.6,9.94 52.6,22.2 C52.6,34.4 62.41,44.34 74.54,44.34 C86.67,44.34 96.54,34.4 96.54,22.2 C96.54,10 86.66,1.13686838e-13 74.54,1.13686838e-13 Z M74.54,36.06 C67.32,36.06 61.42,29.83 61.42,22.21 C61.42,14.52 67.32,8.29 74.54,8.29 C81.83,8.29 87.73,14.52 87.73,22.21 C87.73,29.9 81.82,36.06 74.54,36.06 Z" id="Shape"></path>
                <path d="M112.35,12.07 C112.35,9.55 114.67,7.83 118.65,7.83 C123.02,7.83 126.73,10.15 128.59,12.8 L134.29,7.17 C131.44,3.06 125.94,0.01 118.98,0.01 C109.9,0.01 103.47,5.12 103.47,12.34 C103.47,27.11 125.8,23.41 125.8,31.62 C125.8,34.67 123.22,36.52 118.58,36.52 C114.14,36.52 110.43,34.73 107.78,31.22 L101.88,36.72 C104.66,40.9 109.77,44.34 118.45,44.34 C128.19,44.34 134.69,38.84 134.69,31.15 C134.69,16.24 112.35,19.62 112.35,12.07 Z" id="Path"></path>
                <rect id="Rectangle" x="143.75" y="0.93" width="8.28" height="42.48"></rect>
                <polygon id="Path" points="159.57 8.69 172.16 8.69 172.16 43.42 180.45 43.42 180.45 8.69 193.11 8.69 193.11 0.93 159.57 0.93"></polygon>
                <rect id="Rectangle" x="200.71" y="0.93" width="8.28" height="42.48"></rect>
                <polygon id="Path" points="237.81 34.4 226.15 0.93 217 0.93 232.71 43.42 242.45 43.42 258.16 0.93 249.47 0.93"></polygon>
                <polygon id="Path" points="266.22 43.42 293.72 43.42 293.72 35.59 274.5 35.59 274.5 25.92 291.07 25.92 291.07 18.1 274.5 18.1 274.5 8.69 293.72 8.69 293.72 0.93 266.22 0.93"></polygon>
                <path d="M29.43,0.93 L22.6,0.93 L21.07,0.93 L14.31,0.93 L14.31,21.81 L2.27373675e-13,21.81 L2.27373675e-13,29.1 L14.31,29.1 L14.31,43.41 L22.59,43.41 L22.59,29.1 L25.43,29.1 L29.28,29.1 C39.62,29.1 46.45,23.53 46.45,14.98 C46.45,6.5 39.7,0.93 29.43,0.93 Z M30.09,21.81 L25.44,21.81 L22.6,21.81 L22.6,13.4 L22.6,8.22 L30.09,8.22 C34.66,8.22 37.71,10.94 37.71,14.98 C37.71,19.09 34.66,21.81 30.09,21.81 Z" id="Shape"></path>
            </g>
        </g>
    </g>
</svg>